<svg xmlns="http://www.w3.org/2000/svg" xmlns:xlink="http://www.w3.org/1999/xlink" width="1403" zoomAndPan="magnify" viewBox="54 469 1403 474" height="474" preserveAspectRatio="xMidYMid meet" version="1.0"><defs><g/><clipPath id="49d6b1bdfb"><path d="M 0.679688 25 L 89 25 L 89 114 L 0.679688 114 Z M 0.679688 25 " clip-rule="nonzero"/></clipPath><clipPath id="c76aa36a42"><rect x="0" width="102" y="0" height="174"/></clipPath><clipPath id="eff58c78ee"><path d="M 0.28125 21 L 52 21 L 52 73 L 0.28125 73 Z M 0.28125 21 " clip-rule="nonzero"/></clipPath><clipPath id="f398a152fd"><rect x="0" width="289" y="0" height="98"/></clipPath></defs><g fill="#24225c" fill-opacity="1"><g transform="translate(57.585314, 873.040393)"><g><path d="M 191.296875 -283.109375 L 191.296875 -213.140625 L 70.375 -213.140625 L 70.375 -69.96875 L 191.296875 -69.96875 L 191.296875 0 L -0.40625 0 L -0.40625 -283.109375 Z M 191.296875 -283.109375 "/></g></g></g><g fill="#24225c" fill-opacity="1"><g transform="translate(279.212537, 873.040393)"><g><path d="M 216.375 -283.921875 L 216.375 -212.734375 L 70.375 -212.734375 L 70.375 -120.921875 L 68.34375 -120.921875 L -0.40625 -192.515625 L -0.40625 -283.921875 Z M 144.78125 -71.1875 L 144.78125 -159.34375 L 148.421875 -159.34375 L 216.375 -103.53125 L 216.375 0 L -0.40625 0 L -0.40625 -71.1875 Z M 144.78125 -71.1875 "/></g></g></g><g fill="#24225c" fill-opacity="1"><g transform="translate(525.914449, 873.040393)"><g><path d="M 0 -283.921875 L 213.140625 -283.921875 L 213.140625 -0.40625 L 141.546875 -0.40625 L 141.546875 -70.375 L 70.78125 -136.703125 L 70.78125 -0.40625 L 0 -0.40625 Z M 70.78125 -141.546875 L 141.546875 -141.546875 L 141.546875 -212.734375 L 70.78125 -212.734375 Z M 70.78125 -141.546875 "/></g></g></g><g fill="#24225c" fill-opacity="1"><g transform="translate(768.572068, 873.040393)"><g><path d="M 70.78125 -212.328125 L 0 -212.328125 L 0 -283.109375 L 211.921875 -283.109375 L 211.921875 -212.328125 L 141.15625 -212.328125 L 141.15625 -0.40625 L 70.78125 -0.40625 Z M 70.78125 -212.328125 "/></g></g></g><g transform="matrix(1, 0, 0, 1, 175, 663)"><g clip-path="url(#c76aa36a42)"><g clip-path="url(#49d6b1bdfb)"><g fill="#32b8f0" fill-opacity="1"><g transform="translate(0.974659, 130.360005)"><g><path d="M 58.625 -45.96875 L 58.625 -16.828125 L 29.140625 -16.828125 L 29.140625 -45.96875 L 0 -45.96875 L 0 -75.453125 L 29.140625 -75.453125 L 29.140625 -104.578125 L 58.625 -104.578125 L 58.625 -75.453125 L 87.765625 -75.453125 L 87.765625 -45.96875 Z M 58.625 -45.96875 "/></g></g></g></g></g></g><g fill="#c6e84d" fill-opacity="1"><g transform="translate(1011.39849, 873.040393)"><g><path d="M 212.734375 -283.515625 L 212.734375 0 L 0 0 L 0 -283.515625 L 71.1875 -283.515625 L 71.1875 -222.03125 L 127 -283.515625 Z M 141.546875 -212.328125 L 71.1875 -212.328125 L 71.1875 -70.375 L 141.546875 -70.375 Z M 141.546875 -212.328125 "/></g></g></g><g fill="#c6e84d" fill-opacity="1"><g transform="translate(1255.269407, 873.040393)"><g><path d="M 198.171875 -283.921875 L 198.171875 0.40625 L 0.40625 0.40625 L 0.40625 -78.0625 L 71.578125 -142.359375 L 71.578125 -64.703125 L 127 -64.703125 L 127 -212.734375 L 78.859375 -212.734375 L 78.859375 -283.921875 Z M 198.171875 -283.921875 "/></g></g></g><path stroke-linecap="butt" transform="matrix(0.75, 0, 0, 0.75, 510.258397, 921.006765)" fill="none" stroke-linejoin="miter" d="M -0.000779866 12.501398 L 639.311775 12.501398 " stroke="#d9d9d9" stroke-width="25" stroke-opacity="1" stroke-miterlimit="4"/><g transform="matrix(1, 0, 0, 1, 1109, 468)"><g clip-path="url(#f398a152fd)"><g clip-path="url(#eff58c78ee)"><g fill="#a86bea" fill-opacity="1"><g transform="translate(0.899454, 72.680259)"><g><path d="M 50.609375 -50.703125 L 50.609375 0 L 0 0 L 0 -50.703125 L 16.796875 -50.703125 L 16.796875 -36.125 L 30.328125 -50.703125 Z M 33.796875 -33.796875 L 16.796875 -33.796875 L 16.796875 -16.796875 L 33.796875 -16.796875 Z M 33.796875 -33.796875 "/></g></g></g></g><g fill="#a86bea" fill-opacity="1"><g transform="translate(58.648965, 72.680259)"><g><path d="M 33.703125 -0.09375 L 33.703125 -34 L 16.703125 -34 L 16.703125 -0.09375 L -0.09375 -0.09375 L -0.09375 -50.890625 L 16.703125 -50.890625 L 16.703125 -36.40625 L 28.78125 -50.890625 L 50.609375 -50.890625 L 50.609375 -0.09375 Z M 33.703125 -0.09375 "/></g></g></g><g fill="#a86bea" fill-opacity="1"><g transform="translate(116.591612, 72.680259)"><g><path d="M 24.234375 0 L 0 0 L 0 -67.796875 L 16.90625 -67.796875 L 16.90625 -16.796875 L 24.234375 -16.796875 Z M 24.234375 0 "/></g></g></g><g fill="#a86bea" fill-opacity="1"><g transform="translate(147.784136, 72.680259)"><g><path d="M 0.09375 -67.515625 L 17.09375 -67.515625 L 17.09375 -54.765625 L 0.09375 -54.765625 Z M 0.09375 -50.609375 L 17.09375 -50.609375 L 17.09375 0.09375 L 0.09375 0.09375 Z M 0.09375 -50.609375 "/></g></g></g><g fill="#a86bea" fill-opacity="1"><g transform="translate(172.120124, 72.680259)"><g><path d="M 33.703125 -0.09375 L 33.703125 -34 L 16.703125 -34 L 16.703125 -0.09375 L -0.09375 -0.09375 L -0.09375 -50.890625 L 16.703125 -50.890625 L 16.703125 -36.40625 L 28.78125 -50.890625 L 50.609375 -50.890625 L 50.609375 -0.09375 Z M 33.703125 -0.09375 "/></g></g></g><g fill="#a86bea" fill-opacity="1"><g transform="translate(230.062771, 72.680259)"><g><path d="M 0.09375 0 L 0.09375 -50.703125 L 50.796875 -50.703125 L 50.796875 -30.328125 L 36.125 -16.90625 L 50.796875 -16.90625 L 50.796875 0 Z M 33.90625 -16.90625 L 33.90625 -33.703125 L 16.90625 -33.703125 L 16.90625 -16.90625 Z M 33.90625 -16.90625 "/></g></g></g></g></g><g fill="#24225c" fill-opacity="1"><g transform="translate(1321.587579, 541.185581)"><g><path d="M 6.265625 0.4375 C 5.015625 0.4375 3.9375 0.128906 3.03125 -0.484375 C 2.132812 -1.109375 1.363281 -2.050781 0.71875 -3.3125 L 3.484375 -4.96875 C 3.878906 -4.21875 4.304688 -3.65625 4.765625 -3.28125 C 5.234375 -2.90625 5.757812 -2.71875 6.34375 -2.71875 C 6.707031 -2.71875 7.039062 -2.785156 7.34375 -2.921875 C 7.644531 -3.066406 7.882812 -3.265625 8.0625 -3.515625 C 8.238281 -3.765625 8.328125 -4.03125 8.328125 -4.3125 C 8.328125 -4.625 8.265625 -4.898438 8.140625 -5.140625 C 8.023438 -5.378906 7.851562 -5.613281 7.625 -5.84375 C 7.40625 -6.070312 7.070312 -6.375 6.625 -6.75 C 5.3125 -7.851562 4.328125 -8.710938 3.671875 -9.328125 C 3.015625 -9.953125 2.492188 -10.585938 2.109375 -11.234375 C 1.722656 -11.890625 1.53125 -12.582031 1.53125 -13.3125 C 1.53125 -14.113281 1.742188 -14.847656 2.171875 -15.515625 C 2.597656 -16.179688 3.171875 -16.703125 3.890625 -17.078125 C 4.617188 -17.460938 5.410156 -17.65625 6.265625 -17.65625 C 7.273438 -17.65625 8.164062 -17.421875 8.9375 -16.953125 C 9.71875 -16.484375 10.488281 -15.800781 11.25 -14.90625 L 8.875 -12.890625 C 8.394531 -13.429688 7.941406 -13.835938 7.515625 -14.109375 C 7.097656 -14.378906 6.664062 -14.515625 6.21875 -14.515625 C 5.78125 -14.515625 5.425781 -14.398438 5.15625 -14.171875 C 4.882812 -13.953125 4.75 -13.664062 4.75 -13.3125 C 4.75 -13.0625 4.832031 -12.816406 5 -12.578125 C 5.164062 -12.335938 5.429688 -12.054688 5.796875 -11.734375 C 6.160156 -11.410156 6.75 -10.921875 7.5625 -10.265625 C 8.539062 -9.484375 9.285156 -8.835938 9.796875 -8.328125 C 10.316406 -7.816406 10.738281 -7.242188 11.0625 -6.609375 C 11.382812 -5.972656 11.546875 -5.257812 11.546875 -4.46875 C 11.546875 -3.519531 11.320312 -2.671875 10.875 -1.921875 C 10.425781 -1.179688 9.800781 -0.601562 9 -0.1875 C 8.195312 0.226562 7.285156 0.4375 6.265625 0.4375 Z M 6.265625 0.4375 "/></g></g></g><g fill="#24225c" fill-opacity="1"><g transform="translate(1334.0676, 541.185581)"><g><path d="M 1.96875 -17.234375 L 5.25 -17.234375 L 5.25 0 L 1.96875 0 Z M 1.96875 -17.234375 "/></g></g></g><g fill="#24225c" fill-opacity="1"><g transform="translate(1341.291614, 541.185581)"><g><path d="M 12.5 -17.234375 L 15.796875 -17.234375 L 15.796875 0 L 12.625 0 L 5.25 -11.28125 L 5.25 0 L 1.96875 0 L 1.96875 -17.234375 L 5.109375 -17.234375 L 12.5 -5.921875 Z M 12.5 -17.234375 "/></g></g></g><g fill="#24225c" fill-opacity="1"><g transform="translate(1359.051653, 541.185581)"><g><path d="M 10.25 0.4375 C 8.46875 0.4375 6.882812 0.0507812 5.5 -0.71875 C 4.125 -1.5 3.050781 -2.578125 2.28125 -3.953125 C 1.507812 -5.335938 1.125 -6.898438 1.125 -8.640625 C 1.125 -10.398438 1.539062 -11.96875 2.375 -13.34375 C 3.207031 -14.71875 4.320312 -15.78125 5.71875 -16.53125 C 7.125 -17.28125 8.648438 -17.65625 10.296875 -17.65625 C 11.703125 -17.65625 13.054688 -17.351562 14.359375 -16.75 C 15.660156 -16.15625 16.78125 -15.304688 17.71875 -14.203125 L 15.40625 -12 C 14.625 -12.832031 13.804688 -13.457031 12.953125 -13.875 C 12.109375 -14.300781 11.195312 -14.515625 10.21875 -14.515625 C 9.144531 -14.515625 8.160156 -14.257812 7.265625 -13.75 C 6.367188 -13.238281 5.65625 -12.535156 5.125 -11.640625 C 4.601562 -10.742188 4.34375 -9.742188 4.34375 -8.640625 C 4.34375 -7.472656 4.597656 -6.441406 5.109375 -5.546875 C 5.617188 -4.648438 6.328125 -3.953125 7.234375 -3.453125 C 8.140625 -2.960938 9.160156 -2.71875 10.296875 -2.71875 C 11.316406 -2.71875 12.222656 -2.914062 13.015625 -3.3125 C 13.804688 -3.707031 14.632812 -4.335938 15.5 -5.203125 L 17.734375 -2.875 C 16.929688 -2.09375 16.164062 -1.460938 15.4375 -0.984375 C 14.71875 -0.515625 13.9375 -0.160156 13.09375 0.078125 C 12.25 0.316406 11.300781 0.4375 10.25 0.4375 Z M 10.25 0.4375 "/></g></g></g><g fill="#24225c" fill-opacity="1"><g transform="translate(1377.77169, 541.185581)"><g><path d="M 1.96875 -17.234375 L 11.375 -17.234375 L 11.375 -14.046875 L 5.25 -14.046875 L 5.25 -10.890625 L 11.375 -10.890625 L 11.375 -7.78125 L 5.25 -7.78125 L 5.25 -3.21875 L 11.375 -3.21875 L 11.375 0 L 1.96875 0 Z M 1.96875 -17.234375 "/></g></g></g><g fill="#24225c" fill-opacity="1"><g transform="translate(1390.227713, 541.185581)"><g/></g></g><g fill="#24225c" fill-opacity="1"><g transform="translate(1396.947729, 541.185581)"><g><path d="M 0.8125 -12.890625 C 1.28125 -14.472656 2.019531 -15.660156 3.03125 -16.453125 C 4.050781 -17.253906 5.335938 -17.65625 6.890625 -17.65625 C 7.960938 -17.65625 8.910156 -17.40625 9.734375 -16.90625 C 10.554688 -16.414062 11.1875 -15.765625 11.625 -14.953125 C 12.0625 -14.140625 12.28125 -13.269531 12.28125 -12.34375 C 12.28125 -11.519531 12.132812 -10.738281 11.84375 -10 C 11.550781 -9.269531 11.109375 -8.523438 10.515625 -7.765625 C 9.921875 -7.003906 9.128906 -6.101562 8.140625 -5.0625 L 6.1875 -3.046875 L 12.4375 -3.046875 L 12.4375 0 L 0.5 0 L 0.5 -1.578125 L 5.828125 -7.015625 C 6.921875 -8.109375 7.734375 -9.066406 8.265625 -9.890625 C 8.804688 -10.722656 9.078125 -11.53125 9.078125 -12.3125 C 9.078125 -12.738281 8.972656 -13.128906 8.765625 -13.484375 C 8.566406 -13.835938 8.289062 -14.117188 7.9375 -14.328125 C 7.59375 -14.535156 7.203125 -14.640625 6.765625 -14.640625 C 5.328125 -14.640625 4.359375 -13.695312 3.859375 -11.8125 Z M 0.8125 -12.890625 "/></g></g></g><g fill="#24225c" fill-opacity="1"><g transform="translate(1410.387761, 541.185581)"><g><path d="M 6.765625 0.40625 C 4.554688 0.40625 2.988281 -0.378906 2.0625 -1.953125 C 1.132812 -3.523438 0.671875 -5.707031 0.671875 -8.5 C 0.671875 -11.394531 1.15625 -13.644531 2.125 -15.25 C 3.101562 -16.851562 4.617188 -17.65625 6.671875 -17.65625 C 8.722656 -17.65625 10.25 -16.898438 11.25 -15.390625 C 12.25 -13.878906 12.75 -11.582031 12.75 -8.5 C 12.75 -5.519531 12.253906 -3.289062 11.265625 -1.8125 C 10.285156 -0.332031 8.785156 0.40625 6.765625 0.40625 Z M 6.765625 -2.609375 C 7.679688 -2.609375 8.367188 -3.101562 8.828125 -4.09375 C 9.296875 -5.09375 9.53125 -6.5625 9.53125 -8.5 C 9.53125 -10.53125 9.300781 -12.039062 8.84375 -13.03125 C 8.382812 -14.019531 7.6875 -14.515625 6.75 -14.515625 C 6.0625 -14.515625 5.507812 -14.289062 5.09375 -13.84375 C 4.6875 -13.394531 4.398438 -12.734375 4.234375 -11.859375 C 4.066406 -10.992188 3.984375 -9.875 3.984375 -8.5 C 3.984375 -6.507812 4.210938 -5.03125 4.671875 -4.0625 C 5.128906 -3.09375 5.828125 -2.609375 6.765625 -2.609375 Z M 6.765625 -2.609375 "/></g></g></g><g fill="#24225c" fill-opacity="1"><g transform="translate(1423.827793, 541.185581)"><g><path d="M 0.8125 -12.890625 C 1.28125 -14.472656 2.019531 -15.660156 3.03125 -16.453125 C 4.050781 -17.253906 5.335938 -17.65625 6.890625 -17.65625 C 7.960938 -17.65625 8.910156 -17.40625 9.734375 -16.90625 C 10.554688 -16.414062 11.1875 -15.765625 11.625 -14.953125 C 12.0625 -14.140625 12.28125 -13.269531 12.28125 -12.34375 C 12.28125 -11.519531 12.132812 -10.738281 11.84375 -10 C 11.550781 -9.269531 11.109375 -8.523438 10.515625 -7.765625 C 9.921875 -7.003906 9.128906 -6.101562 8.140625 -5.0625 L 6.1875 -3.046875 L 12.4375 -3.046875 L 12.4375 0 L 0.5 0 L 0.5 -1.578125 L 5.828125 -7.015625 C 6.921875 -8.109375 7.734375 -9.066406 8.265625 -9.890625 C 8.804688 -10.722656 9.078125 -11.53125 9.078125 -12.3125 C 9.078125 -12.738281 8.972656 -13.128906 8.765625 -13.484375 C 8.566406 -13.835938 8.289062 -14.117188 7.9375 -14.328125 C 7.59375 -14.535156 7.203125 -14.640625 6.765625 -14.640625 C 5.328125 -14.640625 4.359375 -13.695312 3.859375 -11.8125 Z M 0.8125 -12.890625 "/></g></g></g><g fill="#24225c" fill-opacity="1"><g transform="translate(1437.267825, 541.185581)"><g><path d="M 7.15625 -11.234375 C 8.144531 -11.234375 9.039062 -10.992188 9.84375 -10.515625 C 10.644531 -10.035156 11.269531 -9.351562 11.71875 -8.46875 C 12.175781 -7.59375 12.40625 -6.578125 12.40625 -5.421875 C 12.40625 -4.234375 12.144531 -3.203125 11.625 -2.328125 C 11.101562 -1.453125 10.390625 -0.773438 9.484375 -0.296875 C 8.585938 0.167969 7.578125 0.40625 6.453125 0.40625 C 5.523438 0.40625 4.675781 0.238281 3.90625 -0.09375 C 3.144531 -0.425781 2.488281 -0.882812 1.9375 -1.46875 C 1.382812 -2.0625 0.960938 -2.722656 0.671875 -3.453125 L 3.71875 -4.6875 C 3.988281 -4.007812 4.34375 -3.492188 4.78125 -3.140625 C 5.226562 -2.785156 5.8125 -2.609375 6.53125 -2.609375 C 7.007812 -2.609375 7.441406 -2.71875 7.828125 -2.9375 C 8.222656 -3.164062 8.53125 -3.492188 8.75 -3.921875 C 8.976562 -4.347656 9.09375 -4.847656 9.09375 -5.421875 C 9.09375 -5.953125 8.976562 -6.421875 8.75 -6.828125 C 8.519531 -7.234375 8.207031 -7.546875 7.8125 -7.765625 C 7.414062 -7.992188 6.976562 -8.109375 6.5 -8.109375 C 6.007812 -8.109375 5.59375 -8.023438 5.25 -7.859375 C 4.90625 -7.691406 4.5625 -7.429688 4.21875 -7.078125 L 1.5625 -7.6875 L 3.640625 -17.234375 L 12.078125 -17.234375 L 12.078125 -14.203125 L 6.09375 -14.203125 L 5.359375 -10.890625 C 5.835938 -11.117188 6.4375 -11.234375 7.15625 -11.234375 Z M 7.15625 -11.234375 "/></g></g></g></svg>